<svg width="82" height="78" viewBox="0 0 82 78" fill="none" xmlns="http://www.w3.org/2000/svg">
<rect width="82" height="78" fill="#FF2876"/>
<path d="M25.4091 56H13.0341V21.0909H25.5114C29.0227 21.0909 32.0455 21.7898 34.5795 23.1875C37.1136 24.5739 39.0625 26.5682 40.4261 29.1705C41.8011 31.7727 42.4886 34.8864 42.4886 38.5114C42.4886 42.1477 41.8011 45.2727 40.4261 47.8864C39.0625 50.5 37.1023 52.5057 34.5455 53.9034C32 55.3011 28.9545 56 25.4091 56ZM20.4148 49.6761H25.1023C27.2841 49.6761 29.1193 49.2898 30.608 48.517C32.108 47.733 33.233 46.5227 33.983 44.8864C34.7443 43.2386 35.125 41.1136 35.125 38.5114C35.125 35.9318 34.7443 33.8239 33.983 32.1875C33.233 30.5511 32.1136 29.3466 30.625 28.5739C29.1364 27.8011 27.3011 27.4148 25.1193 27.4148H20.4148V49.6761ZM69.6037 37.2841L62.956 37.6932C62.8423 37.125 62.598 36.6136 62.223 36.1591C61.848 35.6932 61.3537 35.3239 60.7401 35.0511C60.1378 34.767 59.4162 34.625 58.5753 34.625C57.4503 34.625 56.5014 34.8636 55.7287 35.3409C54.956 35.8068 54.5696 36.4318 54.5696 37.2159C54.5696 37.8409 54.8196 38.3693 55.3196 38.8011C55.8196 39.233 56.6776 39.5795 57.8935 39.8409L62.6321 40.7955C65.1776 41.3182 67.0753 42.1591 68.3253 43.3182C69.5753 44.4773 70.2003 46 70.2003 47.8864C70.2003 49.6023 69.6946 51.108 68.6832 52.4034C67.6832 53.6989 66.3082 54.7102 64.5582 55.4375C62.8196 56.1534 60.8139 56.5114 58.5412 56.5114C55.0753 56.5114 52.3139 55.7898 50.2571 54.3466C48.2116 52.892 47.0128 50.9148 46.6605 48.4148L53.8026 48.0398C54.0185 49.0966 54.5412 49.9034 55.3707 50.4602C56.2003 51.0057 57.2628 51.2784 58.5582 51.2784C59.831 51.2784 60.8537 51.0341 61.6264 50.5455C62.4105 50.0455 62.8082 49.4034 62.8196 48.6193C62.8082 47.9602 62.5298 47.4205 61.9844 47C61.4389 46.5682 60.598 46.2386 59.4616 46.0114L54.9276 45.108C52.3707 44.5966 50.4673 43.7102 49.2173 42.4489C47.9787 41.1875 47.3594 39.5795 47.3594 37.625C47.3594 35.9432 47.8139 34.4943 48.723 33.2784C49.6435 32.0625 50.9332 31.125 52.5923 30.4659C54.2628 29.8068 56.2173 29.4773 58.456 29.4773C61.7628 29.4773 64.3651 30.1761 66.2628 31.5739C68.1719 32.9716 69.2855 34.875 69.6037 37.2841Z" fill="white"/>
</svg>
